<?xml version="1.0" encoding="iso-8859-1"?>
<!-- Uploaded to: SVG Repo, www.svgrepo.com, Generator: SVG Repo Mixer Tools -->
<svg fill="#fff" height="800px" width="800px" version="1.1" id="Layer_1" xmlns="http://www.w3.org/2000/svg" xmlns:xlink="http://www.w3.org/1999/xlink" 
	 viewBox="0 0 512 512" xml:space="preserve">
<g>
	<g>
		<polygon points="438.32,62.807 438.32,109.573 407.95,109.573 407.95,62.807 343.661,62.807 343.661,192.019 502.609,192.019 
			502.609,62.807 		"/>
	</g>
</g>
<g>
	<g>
		<path d="M486.376,345.54c-1.198-1.768-2.476-3.476-3.833-5.119c-2.035-2.464-4.243-4.779-6.605-6.928
			c-11.815-10.741-27.501-17.296-44.688-17.296c-8.021,0-15.714,1.427-22.841,4.041c-25.45,9.337-43.657,33.81-43.657,62.456
			c0,2.292,0.116,4.556,0.344,6.79c0.682,6.698,2.363,13.106,4.89,19.07c0.421,0.994,0.866,1.976,1.333,2.945
			c5.143,10.657,13.046,19.742,22.776,26.321c4.423,2.99,9.223,5.464,14.313,7.33c7.126,2.614,14.819,4.041,22.841,4.041
			c26.355,0,49.178-15.411,59.931-37.694c0.468-0.969,0.912-1.951,1.333-2.945c2.527-5.965,4.207-12.372,4.891-19.07
			c0.228-2.233,0.344-4.498,0.344-6.79C497.748,368.943,493.553,356.154,486.376,345.54z M431.249,403.056
			c-11.228,0-20.361-9.134-20.361-20.361s9.134-20.361,20.361-20.361c11.228,0,20.361,9.134,20.361,20.361
			S442.477,403.056,431.249,403.056z"/>
	</g>
</g>
<g>
	<g>
		<path d="M446.434,256.367v-33.978H259.901v54.282h-81.64V149.607h37.733v-30.37H107.044L35.24,324.023
			C14.29,335.229,0,357.321,0,382.695c0,36.667,29.831,66.498,66.498,66.498s66.498-29.831,66.498-66.498
			c0-3.845-0.346-7.608-0.976-11.276h172.497h30.525c5.604-48.119,46.608-85.591,96.207-85.591c23.322,0,44.745,8.286,61.482,22.067
			L512,284.451C493.705,269.384,471.147,259.321,446.434,256.367z M66.498,403.056c-11.228,0-20.361-9.134-20.361-20.361
			c0-11.228,9.134-20.361,20.361-20.361s20.361,9.134,20.361,20.361C86.86,393.923,77.725,403.056,66.498,403.056z"/>
	</g>
</g>
</svg>